<?xml version="1.0" encoding="UTF-8" standalone="no"?>
<svg width="22px" height="20px" viewBox="0 0 22 20" version="1.1" xmlns="http://www.w3.org/2000/svg" xmlns:xlink="http://www.w3.org/1999/xlink" xmlns:sketch="http://www.bohemiancoding.com/sketch/ns">
    <!-- Generator: Sketch 3.3.3 (12081) - http://www.bohemiancoding.com/sketch -->
    <title>thumb-up</title>
    <desc>Created with Sketch.</desc>
    <defs></defs>
    <g id="Page-1" stroke="none" stroke-width="1" fill="none" fill-rule="evenodd" sketch:type="MSPage">
        <g id="thumb-up" sketch:type="MSLayerGroup" fill="#000000">
            <path d="M0,20 L4,20 L4,8 L0,8 L0,20 L0,20 Z M22,9 C22,7.9 21.1,7 20,7 L13.7,7 L14.7,2.4 L14.7,2.1 C14.7,1.7 14.5,1.3 14.3,1 L13.2,0 L6.6,6.6 C6.2,6.9 6,7.4 6,8 L6,18 C6,19.1 6.9,20 8,20 L17,20 C17.8,20 18.5,19.5 18.8,18.8 L21.8,11.7 C21.9,11.5 21.9,11.2 21.9,11 L21.9,9 L22,9 C22,9.1 22,9 22,9 L22,9 Z" id="Shape" sketch:type="MSShapeGroup"></path>
        </g>
    </g>
</svg>